HIERARCHY
ROOT pelvis
{
  OFFSET 0 100 0
  CHANNELS 6 Xposition Yposition Zposition Zrotation Xrotation Yrotation
  JOINT pelvis_right_femur
  {
    OFFSET -10.78128 -3.44521 -0.5502486
    CHANNELS 3 Zrotation Xrotation Yrotation
    JOINT right_femur_tibia
    {
      OFFSET -0.8047443 -44.0398 -0.1307829
      CHANNELS 3 Zrotation Xrotation Yrotation
      JOINT right_tibia_foot
      {
        OFFSET 3.006224 -47.83518 -5
        CHANNELS 3 Zrotation Xrotation Yrotation
        End Site
        {
          OFFSET 0 -5 15
        }
      }
    }
  }
  JOINT pelvis_left_femur
  {
    OFFSET 10.78128 -3.44521 -0.5502486
    CHANNELS 3 Zrotation Xrotation Yrotation
    JOINT left_femur_tibia
    {
      OFFSET 0.8047443 -44.0398 -0.1307829
      CHANNELS 3 Zrotation Xrotation Yrotation
      JOINT left_tibia_foot
      {
        OFFSET -4.370144 -48.10324 -4.275266
        CHANNELS 3 Zrotation Xrotation Yrotation
        End Site
        {
          OFFSET 0 -5 15
        }
      }
    }
  }
  JOINT pelvis_spine1
  {
    OFFSET 0 6.468898 -3.129235
    CHANNELS 3 Zrotation Xrotation Yrotation
    JOINT spine1
    {
      OFFSET 0 23.15396 4.99043
      CHANNELS 3 Zrotation Xrotation Yrotation
      JOINT spine2
      {
        OFFSET 0 20.79997 -5.064912
        CHANNELS 3 Zrotation Xrotation Yrotation
        JOINT neck
        {
          OFFSET 0 14.38658 9.616178
          CHANNELS 3 Zrotation Xrotation Yrotation
          End Site
          {
            OFFSET 0 20 0
          }
        }
      }
      JOINT right_manubrium
      {
        OFFSET -5.722621 16.35077 3.967754
        CHANNELS 3 Zrotation Xrotation Yrotation
        JOINT right_clavicle
        {
          OFFSET -13.16364 1.694482 -4.693211
          CHANNELS 3 Zrotation Xrotation Yrotation
          JOINT right_humerus
          {
            OFFSET -28.5034 -0.3100689 -2.792744
            CHANNELS 3 Zrotation Xrotation Yrotation
            JOINT right_radius
            {
              OFFSET -25.15693 0.02248979 -1.271978
              CHANNELS 3 Zrotation Xrotation Yrotation
              End Site
              {
                OFFSET -15 0 0
              }
            }
          }
        }
      }
      JOINT left_manubrium
      {
        OFFSET 5.722621 16.35077 3.967754
        CHANNELS 3 Zrotation Xrotation Yrotation
        JOINT left_clavicle
        {
          OFFSET 13.16364 1.694482 -4.693211
          CHANNELS 3 Zrotation Xrotation Yrotation
          JOINT left_humerus
          {
            OFFSET 29.39168 -1.063119 -2.237045
            CHANNELS 3 Zrotation Xrotation Yrotation
            JOINT left_radius
            {
              OFFSET 24.59957 -0.9528479 0.9047498
              CHANNELS 3 Zrotation Xrotation Yrotation
              End Site
              {
                OFFSET 15 -0 -0
              }
            }
          }
        }
      }
    }
  }
}
MOTION
Frames: 17
Frame Time: 0.0416666666667
0 103.5113 0 1.935018 -1.165127 -0.09632797 2.947747 -16.80603 11.22499 -0 39.12561 -0 -5.504434 -17.00055 -3.287625 -8.326889 7.817413 -24.20395 -0 4.408532 -0 18.56461 -11.29518 32.2609 -4.246743 -2.852191 5.922096 1.678174 9.835464 -6.289857 2.38232 22.51467 6.619219 2.849244 -25.10117 10.78361 5.556956 -20.60622 11.64403 86.72074 38.90887 -16.29215 -0 0 15.21435 -5.856784 8.16617 4.343707 5.162083 -18.75922 -1.999602 -90.21264 22.00049 17.78851 0 0 -16.8823 16.87044 13.10868 -3.805332
0.2964291 102.543 1.426292 1.711439 -0.5993266 -0.2052042 3.587551 -18.71477 11.22819 -0 37.78231 -0 -5.347425 -16.11037 -3.185413 -8.252878 8.382763 -23.9466 -0 4.37674 -0 18.65518 -11.79811 32.09302 -4.174566 -2.703009 5.852196 1.889451 9.88074 -6.459654 2.335091 22.18794 6.710229 2.919847 -25.3891 10.82857 5.57796 -20.62424 11.62931 86.76449 39.30047 -16.64676 -0 0 15.18477 -5.576361 8.082476 4.256964 5.33557 -18.91572 -1.923971 -90.00371 21.76473 17.72809 0 0 -18.10328 16.97102 12.46948 -3.923114
0.543865 101.3844 5.242443 0.1629118 1.225349 0.1396516 5.713668 -28.01066 7.283492 -0 24.87513 -0 -6.788664 -6.42125 -2.796157 -7.014648 13.5017 -18.14667 -0 8.199356 -0 14.38743 -15.04216 25.74005 -2.843632 -2.501834 4.32925 3.063531 10.33013 -7.582246 1.759216 21.27589 6.938783 2.30748 -26.09704 10.48977 2.895082 -19.87148 11.51356 90.89381 34.0211 -21.58121 -0 0 9.619981 -8.676228 7.080088 6.677727 5.376598 -21.77582 -2.799465 -86.5453 19.4702 14.97336 0 0 -27.0569 15.20179 9.719191 -1.805446
0.7172171 100.2035 10.17019 -0.4536646 1.358694 0.6340328 6.446077 -30.62935 5.525052 -0 19.91115 -0 -7.909725 -2.683405 -2.825042 -6.641636 15.34746 -15.40309 -0 13.90571 -0 12.27864 -14.48049 22.65279 -1.991866 -2.327078 3.647842 3.29845 10.82339 -7.940428 1.521074 21.12649 7.058277 2.009148 -25.84288 10.32124 1.400898 -19.35567 11.53863 93.44177 31.92973 -23.82906 -0 0 6.44784 -10.02892 6.447458 7.710884 4.8144 -23.04737 -3.730386 -84.36801 18.30699 13.28926 0 0 -31.7174 14.35745 7.913904 -0.7867988
0.7899027 99.30321 16.18036 -0.9872413 0.2627759 1.035751 6.983042 -29.90263 3.741848 -0 15.95595 -0 -9.636398 0.1866495 -3.034903 -6.038879 15.69939 -12.19726 -0 24.53542 -0 9.209287 -12.37515 19.16936 -0.754403 -2.425607 3.222836 3.100308 11.86454 -8.238597 1.314465 21.22929 6.85743 1.597455 -24.8966 9.78487 -0.4126034 -18.97422 11.63602 96.26608 28.69845 -25.86474 -0 0 3.452187 -12.07165 6.141227 8.746671 3.940431 -24.51908 -5.032339 -82.53278 17.03552 12.28693 0 0 -35.17153 13.19136 6.971569 0.5831382
0.7842831 98.84472 22.72809 -1.136814 -1.686453 1.149406 7.380708 -26.02547 2.999903 -0 14.44095 -0 -11.10565 0.9090756 -3.500838 -5.335517 13.89352 -9.960251 -0 35.4675 -0 7.115341 -9.444063 17.20368 0.3029334 -2.534949 3.38741 2.531491 13.09534 -8.270311 1.283243 21.39078 6.329612 1.200486 -23.7577 9.111832 -1.980843 -19.27553 11.74839 98.31038 26.03327 -26.55416 -0 0 2.471027 -13.78383 6.277743 9.429133 2.976739 -25.37158 -6.247636 -81.68631 16.07436 12.7437 0 0 -36.51936 11.99301 6.811622 2.000207
0.7063396 98.85368 29.39328 -1.06739 -4.276691 0.8583615 7.739284 -19.61681 2.951784 -0 13.99909 -0 -12.2745 0.2915645 -4.137675 -4.30895 10.03939 -8.195151 -0 45.85808 -0 5.688372 -6.357499 16.28053 1.200602 -2.674489 4.059951 1.728779 14.52971 -8.107987 1.427431 21.45571 5.396913 0.7600952 -22.56772 8.245547 -3.430965 -20.36266 11.83454 99.55451 23.39605 -25.98118 -0 0 3.586049 -15.57355 7.135252 10.04215 2.068305 -25.75189 -7.330311 -81.91528 15.25094 14.81552 0 0 -35.81016 10.60747 7.504345 3.578202
0.578391 99.18512 35.83465 -0.9228291 -6.847171 0.1759285 7.963862 -12.19566 3.320849 -0 13.93077 -0 -12.85184 -1.153878 -4.747539 -3.051101 4.902258 -6.887717 -0 52.71545 -0 5.058384 -3.904388 16.21031 1.770164 -2.811242 5.024383 0.9403413 15.88166 -7.803495 1.693675 21.30874 4.223218 0.2987885 -21.61538 7.336761 -4.574819 -22.13346 11.87447 99.80182 21.03029 -24.24972 -0 0 6.643617 -17.31738 8.694796 10.74912 1.381804 -25.62741 -8.109958 -83.15693 14.57346 18.19187 0 0 -33.37341 9.117861 8.759825 5.182691
0.4424338 99.57019 41.88878 -0.863111 -8.965061 -0.8201087 8.023439 -4.751643 3.70441 -0 13.70156 -0 -12.80003 -2.999368 -5.120196 -1.616117 -0.8223507 -5.820435 -0 54.78999 -0 4.965635 -2.323608 16.54511 2.011823 -2.986611 6.02624 0.3197625 16.97716 -7.413717 1.99182 20.96828 3.009366 -0.1442958 -20.93874 6.484543 -5.266991 -24.29513 11.90375 99.0492 18.90805 -21.64658 -0 0 11.03321 -19.09373 10.90774 11.70356 0.9953421 -25.13153 -8.560103 -85.25457 14.00903 22.35255 0 0 -29.50369 7.624854 10.40826 6.650851
0.3540901 99.74353 47.56622 -0.9746383 -10.28448 -1.997148 7.944138 1.779091 3.764138 -0 13.18696 -0 -12.22225 -4.984629 -5.098546 -0.1227199 -6.320971 -4.914242 -0 51.78272 -0 5.100218 -1.57987 16.92961 1.987994 -3.212338 6.808677 -0.04478671 17.64227 -6.981526 2.217377 20.55669 2.031513 -0.4784713 -20.4814 5.812198 -5.357239 -26.40071 11.9849 97.42237 17.14446 -18.60687 -0 0 15.79711 -20.87754 13.46741 12.9291 0.9350691 -24.44059 -8.700927 -87.86772 13.59156 26.51897 0 0 -24.7196 6.334207 12.21324 7.748292
0.3626568 99.5148 52.98105 -1.248638 -10.72561 -3.203783 7.771254 6.997864 3.30784 -0 12.52827 -0 -11.35075 -7.070597 -4.643664 1.325212 -11.10952 -4.183507 -0 44.6023 -0 5.126704 -1.405938 17.18082 1.811964 -3.450698 7.229399 -0.1774888 17.78988 -6.506069 2.304497 20.23888 1.501582 -0.5995284 -20.09516 5.394444 -4.791252 -28.05204 12.15994 95.10135 15.90047 -15.49337 -0 0 20.07417 -22.62292 15.97047 14.33805 1.182385 -23.70122 -8.585865 -90.63932 13.37785 30.05173 0 0 -19.4763 5.44611 13.99295 8.274589
0.493061 98.80006 58.27634 -1.614589 -10.41177 -4.306568 7.508239 10.83656 2.321522 -0 11.95872 -0 -10.4731 -9.286884 -3.823586 2.601901 -14.94448 -3.733597 -0 34.87909 -0 4.782799 -1.503932 17.29158 1.590997 -3.617142 7.264155 -0.1706712 17.39935 -5.961692 2.235685 20.16076 1.533807 -0.4176447 -19.62602 5.257536 -3.651667 -28.9619 12.39912 92.30417 15.38765 -12.56389 -0 0 23.23014 -24.21584 17.96444 15.73663 1.698508 -22.99591 -8.262435 -93.21747 13.40466 32.51424 0 0 -14.20197 5.119059 15.58167 8.096725
0.7445193 97.60492 63.57923 -1.97984 -9.603091 -5.228092 7.092274 13.50654 0.9546716 -0 11.67222 -0 -9.845402 -11.63159 -2.77067 3.575824 -17.81075 -3.700975 -0 24.41606 -0 3.939532 -1.655778 17.38221 1.387763 -3.618013 6.993987 -0.1411616 16.50799 -5.315775 2.035549 20.40105 2.121811 0.1092212 -18.9603 5.372302 -2.150059 -29.01546 12.59256 89.25345 15.79862 -9.917362 -0 0 24.98922 -25.51037 19.08204 16.89156 2.431811 -22.32283 -7.757772 -95.3256 13.6344 33.75063 0 0 -9.22235 5.409269 16.84447 7.198157
1.098195 96.00067 68.99142 -2.251541 -8.601893 -5.963904 6.422026 15.34298 -0.5463802 -0 11.78422 -0 -9.646793 -13.96007 -1.6366 4.113317 -19.78832 -4.204977 -0 14.84264 -0 2.617701 -1.773775 17.62107 1.204185 -3.392427 6.557766 -0.1877856 15.1975 -4.5541 1.755473 20.96262 3.158308 0.9646713 -18.05469 5.668445 -0.5660358 -28.25069 12.59451 86.18557 17.2488 -7.54927 -0 0 25.37726 -26.38201 19.11539 17.59796 3.315831 -21.62527 -7.088745 -96.77637 13.94595 33.82229 0 0 -4.783109 6.258857 17.68819 5.683579
1.527032 94.1042 74.59563 -2.342519 -7.674314 -6.568466 5.406449 16.70326 -1.918491 -0 12.3699 -0 -9.959743 -15.94529 -0.5506028 4.101192 -20.96843 -5.303864 -0 7.37427 -0 0.9723297 -1.888494 18.14209 0.9846592 -2.941688 6.104772 -0.3674497 13.5879 -3.694137 1.460194 21.78065 4.465151 2.077018 -16.94904 6.054787 0.8407594 -26.82415 12.29478 83.3399 19.73256 -5.41612 -0 0 24.64004 -26.7958 18.066 17.75383 4.262712 -20.83183 -6.280591 -97.48966 14.16832 32.95088 0 0 -1.058479 7.509627 18.08803 3.761619
2.001976 92.06626 80.45875 -2.180752 -7.001581 -7.117605 4.012364 17.87507 -2.944805 -0 13.53664 -0 -10.77197 -17.1001 0.4142717 3.478662 -21.40086 -6.960067 -0 2.722942 -0 -0.7411484 -2.091039 18.98032 0.639725 -2.338035 5.752972 -0.6885579 11.84001 -2.788851 1.216347 22.74006 5.82955 3.334468 -15.76602 6.441664 1.902348 -24.96455 11.67617 80.94142 23.09775 -3.50824 -0 0 23.14178 -26.83429 16.15566 17.39048 5.1624 -19.90357 -5.386843 -97.49876 14.14235 31.45672 -0 0 1.841311 8.952734 18.10631 1.690502
2.494052 90.062 86.62274 -1.733829 -6.661348 -7.665137 2.295753 19.00599 -3.492684 -0 15.48181 -0 -11.98816 -16.88898 1.262578 2.281094 -21.09544 -9.015828 -0 1.053468 -0 -2.220041 -2.454957 20.04824 0.09019937 -1.707668 5.558311 -1.118614 10.15491 -1.919096 1.077601 23.6945 7.045863 4.607153 -14.69025 6.758437 2.578866 -22.93363 10.83283 79.17083 27.04155 -1.889426 -0 0 21.2808 -26.66346 13.79447 16.64848 5.896746 -18.86925 -4.498175 -96.94007 13.78034 29.69883 -0 0 3.883215 10.39559 17.87832 -0.2977782
